PathFileType	4	(X/Y/Z)	./resultDataOpenSim/trcMotMarkerGrf/sub06/qtm-05-01.trc
DataRate	CameraRate	NumFrames	NumMarkers	Units	OrigDataRate	OrigDataStartFrame	OrigNumFrames
250.000000	250.000000	6	24	m	250.000000	266	531
Frame#	Time	L.Toe.Tip			R.Toe.Tip			L.Ankle.Lat			R.Ankle.Lat			L.Ankle.Med			R.Ankle.Med			L.Heel			R.Heel			L.Knee.Lat			R.Knee.Lat			L.Knee.Med			R.Knee.Med			L.Thigh.Upper			R.Thigh.Upper			L.ASIS			R.ASIS			V.Sacral			L.Acromium			R.Acromium			C7			L.Elbow			R.Elbow			L.Wrist.Lat			R.Wrist.Lat
		X1	Y1	Z1	X2	Y2	Z2	X3	Y3	Z3	X4	Y4	Z4	X5	Y5	Z5	X6	Y6	Z6	X7	Y7	Z7	X8	Y8	Z8	X9	Y9	Z9	X10	Y10	Z10	X11	Y11	Z11	X12	Y12	Z12	X13	Y13	Z13	X14	Y14	Z14	X15	Y15	Z15	X16	Y16	Z16	X17	Y17	Z17	X18	Y18	Z18	X19	Y19	Z19	X20	Y20	Z20	X21	Y21	Z21	X22	Y22	Z22	X23	Y23	Z23	X24	Y24	Z24

266	1.06	0.046053076	-0.065242183	-0.021899062	0.78156639	0.10198639	0.11978469	-0.046903441	0.017543846	-0.049511051	0.64802388	0.075073885	0.13170521	-0.036522782	0.03303494	0.035416197	0.66457794	0.11146275	0.04961374	-0.12078493	0.024203154	0.00031486034	0.61074885	0.038675504	0.063749247	0.1373268	0.34833551	-0.066980411	0.56174261	0.45288595	0.17006773	0.13252293	0.34557396	0.054994202	0.54519657	0.43430695	0.04621373	0.23933921	0.7127512	-0.12649804	0.31751375	0.72991532	0.21914027	0.33205132	0.75598248	-0.10022046	0.38325042	0.77779495	0.1378775	0.18018677	0.84011936	0.058189755	0.32132383	1.244026	-0.14832138	0.3121842	1.2354026	0.21610304	0.24395322	1.2808264	0.030136522	0.32201814	0.91881103	-0.2196289	0.15335709	0.96736428	0.27583507	0.54917641	0.81678522	-0.18760858	0.19715087	0.74636141	0.35724969
267	1.064	0.046105111	-0.065253274	-0.021902112	0.78798662	0.10055031	0.11829728	-0.045406042	0.018544109	-0.049982893	0.65488506	0.072914074	0.1308618	-0.034982784	0.033932041	0.034826543	0.67059618	0.1094831	0.048767957	-0.1192958	0.026217279	-0.00016207862	0.61709728	0.036450931	0.063391679	0.1423262	0.34745711	-0.0673636	0.5681112	0.45126118	0.16884466	0.1376505	0.34475636	0.054658659	0.55102228	0.43262677	0.04504093	0.24485122	0.7115838	-0.12600346	0.32499564	0.72881972	0.21907643	0.33786757	0.75486881	-0.10040299	0.39037709	0.77664579	0.13767317	0.18684932	0.83912584	0.059169124	0.32751499	1.243021	-0.14768209	0.31911635	1.234077	0.21685891	0.25053809	1.2797716	0.031147117	0.32968761	0.91763778	-0.21913861	0.16008786	0.96644738	0.27737225	0.55714747	0.81683204	-0.18652441	0.20427869	0.7450975	0.35867888
268	1.068	0.046167528	-0.065264127	-0.021909211	0.79374062	0.098748026	0.11694316	-0.043805178	0.019570138	-0.050497261	0.66090793	0.070717356	0.13009703	-0.033385559	0.03489127	0.034211976	0.67601282	0.10729693	0.047940784	-0.11767969	0.028327843	-0.00066771106	0.62267113	0.03427061	0.063088283	0.14748309	0.3465312	-0.067756978	0.57440778	0.44973021	0.16756829	0.14300367	0.34381445	0.054289017	0.55682816	0.43113576	0.043867949	0.25046752	0.71042636	-0.12552722	0.33251053	0.7277837	0.21897919	0.34372525	0.75376081	-0.10073352	0.39758193	0.77554779	0.13748072	0.19360979	0.8380995	0.060123662	0.33375677	1.2420596	-0.14696964	0.32608389	1.2327915	0.21764201	0.25721683	1.2787071	0.032115044	0.33732048	0.91655241	-0.21862814	0.16705102	0.96546017	0.27873892	0.56504508	0.81682113	-0.18544922	0.21151773	0.74383603	0.36010332
269	1.072	0.046245683	-0.065272581	-0.021921451	0.79886759	0.096606143	0.11571099	-0.042084536	0.020619542	-0.051064806	0.66613311	0.068500939	0.12939168	-0.031705585	0.035919569	0.03358327	0.68091555	0.10489676	0.047120373	-0.11591665	0.030537518	-0.0012047776	0.62737475	0.032377924	0.062874494	0.15279619	0.34556272	-0.068178851	0.58067563	0.44823098	0.16625381	0.14858424	0.34272132	0.053910949	0.56257735	0.42980479	0.042680375	0.2561895	0.70927625	-0.12506927	0.34007084	0.72682282	0.21885259	0.34961462	0.75266624	-0.10118607	0.40487501	0.77450287	0.13729744	0.20042708	0.83708346	0.060873037	0.34006071	1.241142	-0.14618257	0.33309045	1.2315523	0.21845109	0.26395594	1.2776389	0.03307765	0.34492032	0.91557331	-0.21809379	0.17429072	0.96437404	0.27990224	0.57286574	0.81675544	-0.18439395	0.21886256	0.74258318	0.36151428
270	1.076	0.046342996	-0.065277961	-0.021939611	0.80342259	0.094045015	0.11454685	-0.040235579	0.021695436	-0.051706688	0.67072081	0.066236601	0.12868437	-0.029895487	0.037007738	0.032934386	0.68544413	0.10228957	0.046237827	-0.11400174	0.032830855	-0.0017846707	0.63115267	0.031017522	0.062677405	0.15826048	0.34455598	-0.068647107	0.58696731	0.4466681	0.16493975	0.15437246	0.34148497	0.053532288	0.56824594	0.42859578	0.041493319	0.26201908	0.70813285	-0.12462467	0.34768378	0.72595087	0.21870855	0.35557013	0.75160618	-0.10166308	0.412244	0.77350979	0.1371162	0.20717781	0.83612714	0.061394352	0.34643123	1.2402677	-0.14532149	0.3401404	1.2303669	0.21928507	0.27072884	1.2765755	0.034070363	0.35249201	0.91471094	-0.21753127	0.18173438	0.96323335	0.2809337	0.58060268	0.81664075	-0.18336694	0.22633321	0.74135149	0.36290245
271	1.08	0.046461108	-0.065281011	-0.021963174	0.80749155	0.090800777	0.11336404	-0.038284949	0.022824773	-0.052453471	0.67485211	0.063966841	0.12789747	-0.027930661	0.038141662	0.03225393	0.68978067	0.099513563	0.045172742	-0.11194227	0.035192353	-0.002411241	0.63409115	0.03031617	0.062226371	0.16387704	0.34351613	-0.069168127	0.59324943	0.44494783	0.16366658	0.16035279	0.34013563	0.053139412	0.57382385	0.42745592	0.040373363	0.26796029	0.70699442	-0.12418384	0.35533934	0.72516374	0.21856846	0.36163562	0.75060004	-0.10206581	0.41965082	0.77256169	0.13692914	0.21382592	0.83522138	0.061834204	0.35285828	1.2394352	-0.14439616	0.34723784	1.2292403	0.22014371	0.27752639	1.2755245	0.035113193	0.3600407	0.91396202	-0.21693893	0.18930318	0.96207698	0.28190281	0.58825072	0.81648315	-0.18237048	0.23395126	0.74015241	0.36425895
